<svg xmlns="http://www.w3.org/2000/svg" height="512" width="512"><path d="M510 256c0 85.04-113.72 153.98-254 153.98S2 341.04 2 256c0-85.04 113.72-153.98 254-153.98S510 170.96 510 256" fill="#595f62"/><path d="M403.23 213.91l-22.99 60.57-24.5-64.77-25.34 7.2 39.1 94.32H391l40.34-97.32zm-114.74 69.92l-.21.15a52.4 52.4 0 01-11.12 6.15 30.22 30.22 0 01-10.96 2.06c-7.81 0-14.02-2.76-18.44-8.2-4.4-5.4-6.62-12.57-6.62-21.31 0-8.74 2.26-15.98 6.73-21.52 4.48-5.58 10.65-8.4 18.33-8.4 4.03 0 7.82.65 11.29 1.95 3.44 1.3 7.07 3.48 10.81 6.47l.2.16zm-.3-65.75a57.51 57.51 0 00-7.35-3.6c-5.24-2.12-10.24-3.2-14.85-3.2-10.82 0-20.29 2.16-28.15 6.43a43.77 43.77 0 00-18.04 18.04c-4.13 7.72-6.23 16.78-6.23 26.93 0 15.6 4.65 28.13 13.83 37.25 9.17 9.11 21.87 13.74 37.74 13.74 7.97 0 15.57-2.1 22.57-6.22l.78-.46v10.36c0 6.5-2.61 11.75-7.78 15.62-5.12 3.84-12.01 5.85-20.5 6a71.51 71.51 0 01-15.9-2.26 103.25 103.25 0 01-17.12-6.3l-7.94 17.77c4.89 3.1 11.74 5.68 20.39 7.7 8.88 2.08 16.02 3.14 21.23 3.14 16.59 0 30-3.62 39.83-10.76 9.77-7.1 14.73-17.43 14.73-30.7V209.77l-27.05 8.41zm-125.7-7.23c-4.9 0-10.54.95-16.72 2.82a85.5 85.5 0 00-18.04 7.86l-.78.45v-55.82l-26.5 8.22v136.84l26.5-8.44v-59.26l.23-.15c5.12-3.52 9.89-6.36 14.15-8.46 4.32-2.12 9-3.2 13.9-3.2 4.83 0 8.67 1.78 11.4 5.28 2.69 3.46 4.05 8.34 4.05 14.51v59.72l26.72-8.86v-52.08c0-12.4-2.63-22.18-7.8-29.09-5.14-6.86-14.26-10.34-27.12-10.34" fill="#ffe72d"/></svg>
